# xmcd
#
# Track frame offsets:
#	150
#	18732
#	44110
#	66095
#	84420
#	100645
#	116796
#	142894
#	157452
#	182975
#
# Disc length: 2671 seconds
# Revision: 0
# Processed by: cddbd v1.5.2PL0 Copyright (c) Steve Scherf et al.
# Submitted via: dBpowerAMP V12.0
#
DISCID=900a6d0a
DTITLE=The Jordan Patterson Band - The Back On Track Recording Project
DYEAR=2015
DGENRE=Blues
TTITLE0=Favourite Boy
TTITLE1=Can We Fall In Love Again
TTITLE2=She's Cool 
TTITLE3=You're My Girl
TTITLE4=Living Without Your Love
TTITLE5=Play My Song- Revisited
TTITLE6=If You'd Help Me Please-Revisited
TTITLE7=Do You Believe 
TTITLE8=Heartbreaker- Revisited
TTITLE9=Don't Take Me Down- Revisited
EXTD=
EXTT0=
EXTT1=
EXTT2=
EXTT3=
EXTT4=
EXTT5=
EXTT6=
EXTT7=
EXTT8=
EXTT9=
PLAYORDER=
